<svg id="svg" version="1.1" xmlns="http://www.w3.org/2000/svg" xmlns:xlink="http://www.w3.org/1999/xlink" width="400" height="172" viewBox="0, 0, 400,172"><g id="svgg"><path id="path0" d="M0.000 86.022 L 0.000 172.043 200.000 172.043 L 400.000 172.043 400.000 86.022 L 400.000 0.000 200.000 0.000 L 0.000 0.000 0.000 86.022 M392.478 6.647 C 393.055 6.995,393.333 7.328,393.679 8.088 L 394.131 9.075 394.151 85.613 C 394.174 167.317,394.211 163.375,393.394 164.955 C 393.237 165.259,392.782 165.720,392.382 165.979 L 391.656 166.452 200.086 166.452 L 8.516 166.452 7.825 166.002 C 6.269 164.989,5.705 161.851,5.927 155.441 C 5.986 153.738,6.071 119.970,6.116 80.401 L 6.198 8.457 6.609 7.735 C 6.834 7.337,7.317 6.835,7.682 6.619 L 8.344 6.226 200.036 6.210 L 391.728 6.194 392.478 6.647 " stroke="none" fill="#fcfbf9" fill-rule="evenodd"></path><path id="path1" d="M144.000 60.829 C 140.721 61.520,139.162 62.152,136.477 63.876 C 134.195 65.342,131.468 69.416,131.443 71.398 C 131.440 71.634,131.322 72.208,131.181 72.673 C 130.544 74.771,130.998 78.637,132.201 81.376 C 132.440 81.920,133.377 83.336,133.548 83.412 C 133.619 83.444,133.677 83.538,133.677 83.622 C 133.677 84.077,137.124 87.226,137.621 87.226 C 137.723 87.226,137.806 87.294,137.806 87.378 C 137.806 87.461,137.942 87.575,138.108 87.631 C 138.273 87.686,138.525 87.800,138.667 87.884 C 138.910 88.027,139.466 88.276,140.645 88.770 C 140.929 88.889,141.307 89.062,141.485 89.154 C 141.663 89.246,142.166 89.422,142.603 89.544 C 144.921 90.194,145.896 90.497,146.753 90.834 C 147.273 91.039,148.086 91.322,148.559 91.463 C 151.422 92.318,151.453 92.334,152.910 93.717 C 156.077 96.720,150.767 98.992,143.312 97.823 C 140.941 97.451,139.671 97.198,138.686 96.898 C 137.044 96.399,134.710 96.744,134.710 97.485 C 134.710 97.599,134.648 97.718,134.573 97.749 C 134.330 97.851,133.741 98.990,133.519 99.785 C 133.400 100.211,133.204 100.791,133.083 101.075 C 132.550 102.321,132.422 102.678,132.183 103.570 C 131.851 104.814,131.859 105.462,132.216 106.153 C 132.710 107.108,132.947 107.279,134.710 107.954 C 135.135 108.117,135.612 108.316,135.768 108.396 C 138.603 109.845,150.898 110.454,156.035 109.400 C 159.188 108.752,162.845 106.701,164.938 104.406 C 165.486 103.804,165.994 103.286,166.065 103.254 C 166.135 103.223,166.194 103.124,166.194 103.035 C 166.194 102.946,166.503 102.383,166.882 101.784 C 167.260 101.184,167.570 100.614,167.570 100.517 C 167.570 100.420,167.686 100.119,167.827 99.848 C 167.968 99.577,168.084 99.147,168.085 98.893 C 168.086 98.639,168.170 98.213,168.273 97.947 C 168.552 97.221,168.502 92.178,168.203 90.905 C 167.948 89.821,167.346 88.517,166.280 86.739 C 165.959 86.205,163.863 83.957,163.685 83.957 C 163.645 83.957,163.465 83.822,163.285 83.656 C 161.820 82.310,158.010 80.358,155.355 79.593 C 151.990 78.624,150.200 78.053,148.423 77.381 C 147.707 77.111,146.676 76.317,146.157 75.637 L 145.699 75.036 146.168 74.034 C 146.734 72.828,146.687 72.862,148.290 72.505 C 150.122 72.097,153.906 72.297,156.473 72.937 C 156.852 73.031,157.587 73.196,158.108 73.304 C 158.628 73.412,159.366 73.608,159.748 73.740 C 162.276 74.610,163.973 73.179,164.770 69.505 C 164.821 69.269,164.931 68.990,165.013 68.885 C 165.311 68.506,166.194 65.827,166.194 65.302 C 166.194 63.401,162.889 61.811,156.893 60.829 C 154.718 60.472,145.693 60.473,144.000 60.829 M59.837 61.522 C 58.186 62.381,58.340 60.471,58.285 80.793 L 58.237 98.667 57.720 99.689 C 57.186 100.746,56.207 101.849,55.802 101.849 C 55.674 101.849,55.570 101.914,55.570 101.993 C 55.570 102.314,52.936 102.750,52.014 102.581 C 50.600 102.321,49.002 102.658,48.391 103.344 C 47.323 104.544,46.108 107.545,46.108 108.983 C 46.108 109.809,47.828 111.209,49.376 111.644 C 49.802 111.763,50.405 111.970,50.716 112.103 C 51.026 112.235,51.430 112.344,51.613 112.344 C 51.796 112.344,52.200 112.453,52.510 112.586 C 54.334 113.365,58.684 113.507,60.989 112.861 C 61.746 112.649,62.627 112.413,62.946 112.337 C 63.265 112.261,63.609 112.115,63.711 112.013 C 63.813 111.911,64.024 111.828,64.180 111.828 C 64.471 111.828,65.071 111.540,65.978 110.966 C 66.262 110.786,66.743 110.512,67.047 110.357 C 67.515 110.118,68.101 109.570,69.833 107.752 C 70.661 106.883,71.912 104.630,72.252 103.398 C 72.370 102.972,72.567 102.314,72.691 101.935 C 72.814 101.557,73.009 100.705,73.124 100.043 C 73.239 99.381,73.439 98.281,73.569 97.599 C 73.761 96.599,73.806 93.139,73.806 79.726 C 73.806 60.724,73.954 62.415,72.217 61.536 L 71.307 61.075 65.976 61.089 C 60.672 61.102,60.641 61.105,59.837 61.522 M93.545 61.448 C 92.239 61.904,91.916 62.340,91.017 64.860 C 90.766 65.565,90.008 68.291,89.821 69.161 C 89.683 69.804,89.511 70.360,88.940 72.000 C 88.743 72.568,88.427 73.652,88.238 74.409 C 87.559 77.133,87.118 78.753,86.878 79.398 C 86.675 79.941,86.237 81.526,85.925 82.839 C 85.618 84.129,85.247 85.378,85.004 85.935 C 84.748 86.521,84.340 87.803,84.235 88.344 C 83.918 89.992,83.589 91.281,83.115 92.731 C 82.822 93.630,82.504 94.602,82.410 94.891 C 82.316 95.180,82.171 95.760,82.087 96.181 C 81.839 97.432,81.222 99.661,80.971 100.215 C 80.643 100.939,80.233 102.284,80.001 103.398 C 79.790 104.413,79.370 105.964,79.114 106.672 C 78.855 107.392,79.736 108.768,80.739 109.208 C 81.414 109.504,90.699 109.481,92.129 109.180 C 93.356 108.922,94.526 107.723,94.705 106.542 C 94.806 105.879,95.141 104.612,95.583 103.226 C 95.719 102.800,95.829 102.234,95.829 101.967 C 95.827 100.965,96.723 99.963,97.915 99.633 C 99.055 99.318,107.583 99.444,108.371 99.788 C 109.123 100.116,109.935 100.923,109.935 101.342 C 109.935 101.665,110.224 103.189,110.741 105.594 C 111.016 106.876,112.038 108.725,112.473 108.729 C 112.591 108.730,112.688 108.801,112.688 108.885 C 112.688 109.255,115.658 109.447,120.516 109.391 C 126.191 109.325,126.213 109.321,127.033 107.993 L 127.542 107.169 127.183 106.273 C 126.824 105.375,126.725 105.065,126.187 103.140 C 126.028 102.572,125.780 101.682,125.634 101.161 C 125.489 100.641,125.265 99.923,125.136 99.566 C 124.872 98.831,124.354 97.025,123.878 95.180 C 123.700 94.493,123.365 93.409,123.133 92.772 C 122.900 92.134,122.631 91.303,122.534 90.925 C 122.437 90.546,122.268 89.888,122.158 89.462 C 122.049 89.037,121.896 88.417,121.818 88.086 C 121.741 87.755,121.434 86.834,121.135 86.040 C 120.837 85.247,120.526 84.318,120.444 83.976 C 120.362 83.634,120.164 82.890,120.004 82.323 C 119.843 81.755,119.647 81.058,119.566 80.774 C 119.486 80.490,119.266 79.794,119.076 79.226 C 118.887 78.658,118.602 77.690,118.443 77.075 C 118.082 75.676,117.786 74.695,117.329 73.376 C 116.770 71.764,116.365 70.371,116.129 69.247 C 115.902 68.171,115.299 66.276,115.089 65.978 C 115.022 65.884,114.833 65.265,114.669 64.602 C 114.250 62.903,113.443 61.591,112.818 61.591 C 112.675 61.591,112.280 61.475,111.941 61.333 C 110.861 60.882,94.883 60.982,93.545 61.448 M177.834 61.405 C 177.376 61.575,176.796 61.936,176.544 62.208 L 176.086 62.701 176.041 84.962 L 175.996 107.222 176.362 107.813 C 177.215 109.194,178.118 109.405,183.140 109.401 C 188.309 109.396,188.992 109.258,190.047 108.003 C 190.413 107.568,190.418 107.466,190.506 98.212 C 190.613 87.015,190.633 86.838,191.744 87.302 C 192.097 87.449,192.570 87.570,192.795 87.570 C 193.044 87.570,193.204 87.671,193.204 87.828 C 193.204 87.970,193.273 88.086,193.356 88.086 C 193.440 88.086,193.554 88.222,193.609 88.387 C 193.665 88.553,193.808 88.843,193.928 89.032 C 195.014 90.752,195.800 92.084,196.112 92.731 C 196.317 93.157,196.634 93.738,196.816 94.022 C 196.999 94.305,197.414 95.048,197.738 95.672 C 199.332 98.732,200.343 99.764,202.067 100.091 C 204.910 100.630,206.641 99.494,208.430 95.914 C 208.619 95.535,208.930 94.990,209.121 94.702 C 209.311 94.414,209.737 93.640,210.067 92.982 C 210.397 92.324,210.705 91.746,210.753 91.699 C 210.871 91.580,211.234 90.995,211.445 90.581 C 212.248 89.010,212.997 87.812,213.267 87.667 C 213.446 87.572,213.880 87.318,214.233 87.102 C 215.668 86.224,215.635 85.991,215.739 97.576 L 215.828 107.496 216.362 108.156 C 216.656 108.520,217.120 108.882,217.394 108.961 C 217.668 109.040,218.130 109.176,218.421 109.262 C 219.335 109.534,226.932 109.457,228.078 109.164 C 229.102 108.902,229.858 108.272,230.208 107.387 C 230.301 107.153,230.366 97.906,230.366 85.001 L 230.366 63.014 229.982 62.518 C 228.891 61.105,228.532 61.039,222.329 61.113 C 215.802 61.192,215.486 61.315,213.918 64.416 C 213.077 66.078,211.508 69.121,210.192 71.640 C 209.752 72.483,209.310 73.373,209.211 73.618 C 209.112 73.864,208.878 74.297,208.690 74.581 C 208.503 74.865,208.271 75.275,208.176 75.492 C 208.023 75.840,207.380 77.148,206.884 78.119 C 206.791 78.302,206.655 78.452,206.583 78.452 C 206.511 78.452,206.452 78.545,206.452 78.660 C 206.452 79.127,204.991 81.736,204.578 82.007 C 204.334 82.167,203.941 82.477,203.704 82.697 C 203.466 82.917,203.194 83.097,203.099 83.097 C 202.737 83.097,200.446 80.076,200.434 79.583 C 200.432 79.496,200.327 79.303,200.200 79.153 C 200.074 79.004,199.866 78.611,199.737 78.280 C 199.609 77.948,199.450 77.639,199.386 77.591 C 199.321 77.544,198.774 76.557,198.172 75.398 C 197.569 74.239,196.639 72.459,196.106 71.441 C 195.573 70.424,194.735 68.817,194.244 67.871 C 193.190 65.840,192.576 64.717,192.375 64.451 C 192.295 64.345,192.124 63.987,191.995 63.656 C 191.718 62.945,190.917 62.113,190.194 61.785 C 189.910 61.657,189.523 61.464,189.333 61.356 C 188.688 60.990,178.838 61.032,177.834 61.405 M241.834 61.410 C 241.376 61.577,240.796 61.936,240.544 62.208 L 240.086 62.701 240.041 85.000 L 239.996 107.298 240.485 107.972 C 241.446 109.295,242.097 109.419,248.047 109.419 C 254.486 109.419,255.305 109.235,256.076 107.609 C 256.512 106.691,256.478 63.257,256.042 62.607 C 255.070 61.158,254.621 61.072,248.098 61.090 C 243.356 61.103,242.561 61.144,241.834 61.410 M267.785 61.411 C 267.197 61.627,266.775 61.932,266.452 62.373 L 265.978 63.019 265.978 85.104 L 265.978 107.190 266.406 107.867 C 267.206 109.134,268.242 109.415,272.116 109.417 C 275.711 109.420,277.677 109.075,277.677 108.444 C 277.677 108.318,277.753 108.215,277.845 108.215 C 278.538 108.215,278.595 107.461,278.632 97.806 C 278.665 89.029,278.733 87.338,279.058 87.137 C 279.535 86.843,281.806 87.847,281.806 88.353 C 281.806 88.395,281.942 88.569,282.108 88.739 C 282.273 88.909,282.757 89.465,283.183 89.974 C 283.609 90.484,284.271 91.254,284.654 91.687 C 285.038 92.119,285.616 92.822,285.940 93.247 C 286.263 93.673,286.669 94.149,286.841 94.306 C 287.013 94.462,287.441 94.976,287.792 95.448 C 288.344 96.189,289.003 96.995,290.636 98.925 C 290.836 99.161,291.413 99.935,291.919 100.645 C 292.425 101.355,292.930 102.013,293.043 102.108 C 293.155 102.202,293.566 102.705,293.956 103.226 C 294.346 103.746,294.869 104.389,295.118 104.654 C 295.366 104.919,295.570 105.164,295.570 105.199 C 295.570 105.328,296.386 106.260,297.548 107.457 C 299.305 109.267,299.901 109.419,305.209 109.419 C 310.463 109.419,312.430 109.011,312.430 107.920 C 312.430 107.821,312.546 107.645,312.688 107.527 C 312.915 107.339,312.946 104.640,312.946 85.146 L 312.946 62.980 312.405 62.363 C 311.385 61.202,311.232 61.167,306.839 61.107 C 302.344 61.045,301.763 61.168,300.750 62.397 L 300.235 63.022 300.182 73.275 C 300.126 84.024,300.147 83.722,299.387 84.942 C 299.089 85.421,297.271 83.913,295.987 82.120 C 295.569 81.536,295.127 80.955,295.005 80.830 C 294.884 80.705,294.597 80.331,294.368 80.000 C 294.139 79.669,293.909 79.359,293.857 79.312 C 293.804 79.265,293.550 78.942,293.292 78.596 C 293.034 78.249,292.724 77.862,292.605 77.735 C 292.485 77.609,292.281 77.300,292.151 77.048 C 292.022 76.796,291.693 76.346,291.420 76.048 C 291.148 75.750,290.925 75.433,290.925 75.344 C 290.925 75.255,290.853 75.183,290.764 75.183 C 290.676 75.183,290.560 75.046,290.507 74.878 C 290.454 74.710,290.197 74.337,289.936 74.048 C 289.676 73.759,289.269 73.265,289.032 72.949 C 288.796 72.634,288.505 72.277,288.387 72.157 C 288.269 72.037,288.172 71.856,288.172 71.754 C 288.172 71.653,288.100 71.570,288.012 71.570 C 287.923 71.570,287.807 71.431,287.753 71.261 C 287.699 71.092,287.384 70.666,287.053 70.315 C 286.722 69.964,286.452 69.599,286.452 69.505 C 286.452 69.411,286.394 69.331,286.323 69.329 C 286.252 69.326,286.004 69.016,285.772 68.641 C 285.540 68.265,285.288 67.957,285.213 67.957 C 285.137 67.957,285.075 67.880,285.075 67.785 C 285.075 67.690,284.940 67.464,284.774 67.281 C 284.270 66.725,284.043 66.428,284.043 66.322 C 284.043 66.267,283.845 66.012,283.603 65.756 C 283.361 65.500,283.035 65.077,282.878 64.817 C 282.721 64.557,282.532 64.344,282.458 64.344 C 282.383 64.344,282.323 64.263,282.323 64.165 C 282.323 63.986,282.157 63.751,281.591 63.127 C 281.426 62.945,281.290 62.737,281.290 62.665 C 281.290 62.511,280.833 62.214,279.656 61.606 L 278.796 61.161 273.720 61.127 C 269.162 61.097,268.558 61.126,267.785 61.411 M324.314 61.372 C 323.989 61.532,323.467 61.921,323.152 62.236 L 322.581 62.807 322.581 85.006 C 322.581 101.117,322.634 107.308,322.774 107.581 C 323.029 108.076,323.857 108.843,324.488 109.169 C 325.182 109.528,354.515 109.473,355.355 109.111 C 355.639 108.989,356.200 108.525,356.602 108.080 L 357.333 107.271 357.327 104.087 C 357.320 100.517,357.347 100.601,355.884 99.513 L 355.210 99.011 349.089 98.952 C 339.804 98.862,339.970 98.966,339.960 93.235 C 339.955 89.572,340.178 89.462,347.681 89.462 C 353.319 89.462,353.588 89.429,354.785 88.578 C 355.606 87.995,355.785 87.377,355.785 85.124 C 355.785 81.314,355.577 81.204,348.376 81.204 C 344.177 81.204,343.100 81.156,342.597 80.946 C 342.257 80.804,341.833 80.688,341.655 80.688 C 341.306 80.688,340.523 79.985,340.172 79.357 C 340.034 79.110,339.960 78.281,339.966 77.035 C 339.991 71.461,339.831 71.570,348.015 71.570 C 354.586 71.570,355.427 71.471,356.248 70.601 C 357.359 69.423,357.333 69.527,357.333 66.125 C 357.333 62.566,357.300 62.471,355.763 61.591 L 355.011 61.161 339.957 61.120 C 326.085 61.082,324.857 61.102,324.314 61.372 M103.539 74.548 C 103.665 74.812,103.953 75.546,104.178 76.180 C 104.403 76.815,104.745 77.758,104.939 78.277 C 105.132 78.796,105.290 79.430,105.290 79.685 C 105.290 79.941,105.366 80.349,105.459 80.593 C 105.552 80.837,105.704 81.481,105.798 82.024 C 106.164 84.139,106.477 85.631,106.747 86.538 C 107.753 89.925,107.202 90.752,103.742 91.052 C 98.734 91.486,97.728 90.234,99.212 85.419 C 99.714 83.793,99.786 83.497,100.220 81.278 C 100.926 77.669,100.882 77.810,102.068 75.391 C 102.821 73.854,103.123 73.681,103.539 74.548 " stroke="none" fill="#26191c" fill-rule="evenodd"></path><path id="path2" d="M8.714 8.746 C 8.297 9.207,8.357 150.676,8.774 151.440 L 9.032 151.911 200.023 151.913 L 391.014 151.914 391.292 151.490 C 391.752 150.788,391.715 9.131,391.255 8.715 C 390.739 8.247,9.137 8.278,8.714 8.746 M156.893 60.829 C 162.889 61.811,166.194 63.401,166.194 65.302 C 166.194 65.827,165.311 68.506,165.013 68.885 C 164.931 68.990,164.821 69.269,164.770 69.505 C 163.973 73.179,162.276 74.610,159.748 73.740 C 159.366 73.608,158.628 73.412,158.108 73.304 C 157.587 73.196,156.852 73.031,156.473 72.937 C 153.906 72.297,150.122 72.097,148.290 72.505 C 146.687 72.862,146.734 72.828,146.168 74.034 L 145.699 75.036 146.157 75.637 C 146.676 76.317,147.707 77.111,148.423 77.381 C 150.200 78.053,151.990 78.624,155.355 79.593 C 158.010 80.358,161.820 82.310,163.285 83.656 C 163.465 83.822,163.645 83.957,163.685 83.957 C 163.863 83.957,165.959 86.205,166.280 86.739 C 167.346 88.517,167.948 89.821,168.203 90.905 C 168.502 92.178,168.552 97.221,168.273 97.947 C 168.170 98.213,168.086 98.639,168.085 98.893 C 168.084 99.147,167.968 99.577,167.827 99.848 C 167.686 100.119,167.570 100.420,167.570 100.517 C 167.570 100.614,167.260 101.184,166.882 101.784 C 166.503 102.383,166.194 102.946,166.194 103.035 C 166.194 103.124,166.135 103.223,166.065 103.254 C 165.994 103.286,165.486 103.804,164.938 104.406 C 162.845 106.701,159.188 108.752,156.035 109.400 C 150.898 110.454,138.603 109.845,135.768 108.396 C 135.612 108.316,135.135 108.117,134.710 107.954 C 132.947 107.279,132.710 107.108,132.216 106.153 C 131.859 105.462,131.851 104.814,132.183 103.570 C 132.422 102.678,132.550 102.321,133.083 101.075 C 133.204 100.791,133.400 100.211,133.519 99.785 C 133.741 98.990,134.330 97.851,134.573 97.749 C 134.648 97.718,134.710 97.599,134.710 97.485 C 134.710 96.744,137.044 96.399,138.686 96.898 C 143.007 98.212,150.000 98.476,152.283 97.411 C 153.955 96.631,154.236 94.974,152.910 93.717 C 151.453 92.334,151.422 92.318,148.559 91.463 C 148.086 91.322,147.273 91.039,146.753 90.834 C 145.896 90.497,144.921 90.194,142.603 89.544 C 142.166 89.422,141.663 89.246,141.485 89.154 C 141.307 89.062,140.929 88.889,140.645 88.770 C 139.466 88.276,138.910 88.027,138.667 87.884 C 138.525 87.800,138.273 87.686,138.108 87.631 C 137.942 87.575,137.806 87.461,137.806 87.378 C 137.806 87.294,137.723 87.226,137.621 87.226 C 137.124 87.226,133.677 84.077,133.677 83.622 C 133.677 83.538,133.619 83.444,133.548 83.412 C 133.377 83.336,132.440 81.920,132.201 81.376 C 130.998 78.637,130.544 74.771,131.181 72.673 C 131.322 72.208,131.440 71.634,131.443 71.398 C 131.468 69.416,134.195 65.342,136.477 63.876 C 139.162 62.152,140.721 61.520,144.000 60.829 C 145.693 60.473,154.718 60.472,156.893 60.829 M72.217 61.536 C 73.954 62.415,73.806 60.724,73.806 79.726 C 73.806 93.139,73.761 96.599,73.569 97.599 C 73.439 98.281,73.239 99.381,73.124 100.043 C 73.009 100.705,72.814 101.557,72.691 101.935 C 72.567 102.314,72.370 102.972,72.252 103.398 C 71.912 104.630,70.661 106.883,69.833 107.752 C 68.101 109.570,67.515 110.118,67.047 110.357 C 66.743 110.512,66.262 110.786,65.978 110.966 C 65.071 111.540,64.471 111.828,64.180 111.828 C 64.024 111.828,63.813 111.911,63.711 112.013 C 63.609 112.115,63.265 112.261,62.946 112.337 C 62.627 112.413,61.746 112.649,60.989 112.861 C 58.684 113.507,54.334 113.365,52.510 112.586 C 52.200 112.453,51.796 112.344,51.613 112.344 C 51.430 112.344,51.026 112.235,50.716 112.103 C 50.405 111.970,49.802 111.763,49.376 111.644 C 47.828 111.209,46.108 109.809,46.108 108.983 C 46.108 107.545,47.323 104.544,48.391 103.344 C 49.002 102.658,50.600 102.321,52.014 102.581 C 52.936 102.750,55.570 102.314,55.570 101.993 C 55.570 101.914,55.674 101.849,55.802 101.849 C 56.207 101.849,57.186 100.746,57.720 99.689 L 58.237 98.667 58.285 80.793 C 58.340 60.471,58.186 62.381,59.837 61.522 C 60.641 61.105,60.672 61.102,65.976 61.089 L 71.307 61.075 72.217 61.536 M111.941 61.333 C 112.280 61.475,112.675 61.591,112.818 61.591 C 113.443 61.591,114.250 62.903,114.669 64.602 C 114.833 65.265,115.022 65.884,115.089 65.978 C 115.299 66.276,115.902 68.171,116.129 69.247 C 116.365 70.371,116.770 71.764,117.329 73.376 C 117.786 74.695,118.082 75.676,118.443 77.075 C 118.602 77.690,118.887 78.658,119.076 79.226 C 119.266 79.794,119.486 80.490,119.566 80.774 C 119.647 81.058,119.843 81.755,120.004 82.323 C 120.164 82.890,120.362 83.634,120.444 83.976 C 120.526 84.318,120.837 85.247,121.135 86.040 C 121.434 86.834,121.741 87.755,121.818 88.086 C 121.896 88.417,122.049 89.037,122.158 89.462 C 122.268 89.888,122.437 90.546,122.534 90.925 C 122.631 91.303,122.900 92.134,123.133 92.772 C 123.365 93.409,123.700 94.493,123.878 95.180 C 124.354 97.025,124.872 98.831,125.136 99.566 C 125.265 99.923,125.489 100.641,125.634 101.161 C 125.780 101.682,126.028 102.572,126.187 103.140 C 126.725 105.065,126.824 105.375,127.183 106.273 L 127.542 107.169 127.033 107.993 C 126.213 109.321,126.191 109.325,120.516 109.391 C 115.658 109.447,112.688 109.255,112.688 108.885 C 112.688 108.801,112.591 108.730,112.473 108.729 C 112.038 108.725,111.016 106.876,110.741 105.594 C 110.224 103.189,109.935 101.665,109.935 101.342 C 109.935 100.923,109.123 100.116,108.371 99.788 C 107.583 99.444,99.055 99.318,97.915 99.633 C 96.723 99.963,95.827 100.965,95.829 101.967 C 95.829 102.234,95.719 102.800,95.583 103.226 C 95.141 104.612,94.806 105.879,94.705 106.542 C 94.526 107.723,93.356 108.922,92.129 109.180 C 90.699 109.481,81.414 109.504,80.739 109.208 C 79.736 108.768,78.855 107.392,79.114 106.672 C 79.370 105.964,79.790 104.413,80.001 103.398 C 80.233 102.284,80.643 100.939,80.971 100.215 C 81.222 99.661,81.839 97.432,82.087 96.181 C 82.171 95.760,82.316 95.180,82.410 94.891 C 82.504 94.602,82.822 93.630,83.115 92.731 C 83.589 91.281,83.918 89.992,84.235 88.344 C 84.340 87.803,84.748 86.521,85.004 85.935 C 85.247 85.378,85.618 84.129,85.925 82.839 C 86.237 81.526,86.675 79.941,86.878 79.398 C 87.118 78.753,87.559 77.133,88.238 74.409 C 88.427 73.652,88.743 72.568,88.940 72.000 C 89.511 70.360,89.683 69.804,89.821 69.161 C 90.008 68.291,90.766 65.565,91.017 64.860 C 92.414 60.943,91.897 61.107,102.930 61.089 C 110.023 61.077,111.419 61.115,111.941 61.333 M189.333 61.356 C 189.523 61.464,189.910 61.657,190.194 61.785 C 190.917 62.113,191.718 62.945,191.995 63.656 C 192.124 63.987,192.295 64.345,192.375 64.451 C 192.576 64.717,193.190 65.840,194.244 67.871 C 194.735 68.817,195.573 70.424,196.106 71.441 C 196.639 72.459,197.569 74.239,198.172 75.398 C 198.774 76.557,199.321 77.544,199.386 77.591 C 199.450 77.639,199.609 77.948,199.737 78.280 C 199.866 78.611,200.074 79.004,200.200 79.153 C 200.327 79.303,200.432 79.496,200.434 79.583 C 200.446 80.076,202.737 83.097,203.099 83.097 C 203.194 83.097,203.466 82.917,203.704 82.697 C 203.941 82.477,204.334 82.167,204.578 82.007 C 204.991 81.736,206.452 79.127,206.452 78.660 C 206.452 78.545,206.511 78.452,206.583 78.452 C 206.655 78.452,206.791 78.302,206.884 78.119 C 207.380 77.148,208.023 75.840,208.176 75.492 C 208.271 75.275,208.503 74.865,208.690 74.581 C 208.878 74.297,209.112 73.864,209.211 73.618 C 209.310 73.373,209.752 72.483,210.192 71.640 C 211.508 69.121,213.077 66.078,213.918 64.416 C 215.486 61.315,215.802 61.192,222.329 61.113 C 228.532 61.039,228.891 61.105,229.982 62.518 L 230.366 63.014 230.366 85.001 C 230.366 97.906,230.301 107.153,230.208 107.387 C 229.858 108.272,229.102 108.902,228.078 109.164 C 226.932 109.457,219.335 109.534,218.421 109.262 C 218.130 109.176,217.668 109.040,217.394 108.961 C 217.120 108.882,216.656 108.520,216.362 108.156 L 215.828 107.496 215.739 97.576 C 215.635 85.991,215.668 86.224,214.233 87.102 C 213.880 87.318,213.446 87.572,213.267 87.667 C 212.997 87.812,212.248 89.010,211.445 90.581 C 211.234 90.995,210.871 91.580,210.753 91.699 C 210.705 91.746,210.397 92.324,210.067 92.982 C 209.737 93.640,209.311 94.414,209.121 94.702 C 208.930 94.990,208.619 95.535,208.430 95.914 C 206.641 99.494,204.910 100.630,202.067 100.091 C 200.343 99.764,199.332 98.732,197.738 95.672 C 197.414 95.048,196.999 94.305,196.816 94.022 C 196.634 93.738,196.317 93.157,196.112 92.731 C 195.800 92.084,195.014 90.752,193.928 89.032 C 193.808 88.843,193.665 88.553,193.609 88.387 C 193.554 88.222,193.440 88.086,193.356 88.086 C 193.273 88.086,193.204 87.970,193.204 87.828 C 193.204 87.671,193.044 87.570,192.795 87.570 C 192.570 87.570,192.097 87.449,191.744 87.302 C 190.633 86.838,190.613 87.015,190.506 98.212 C 190.418 107.466,190.413 107.568,190.047 108.003 C 188.992 109.258,188.309 109.396,183.140 109.401 C 178.118 109.405,177.215 109.194,176.362 107.813 L 175.996 107.222 176.041 84.962 L 176.086 62.701 176.544 62.208 C 177.494 61.183,178.108 61.092,183.828 61.128 C 187.299 61.151,189.102 61.225,189.333 61.356 M254.378 61.364 C 255.272 61.669,255.554 61.879,256.042 62.607 C 256.478 63.257,256.512 106.691,256.076 107.609 C 255.305 109.235,254.486 109.419,248.047 109.419 C 242.097 109.419,241.446 109.295,240.485 107.972 L 239.996 107.298 240.041 85.000 L 240.086 62.701 240.544 62.208 C 241.480 61.198,242.095 61.107,248.098 61.090 C 252.759 61.077,253.650 61.116,254.378 61.364 M279.656 61.606 C 280.833 62.214,281.290 62.511,281.290 62.665 C 281.290 62.737,281.426 62.945,281.591 63.127 C 282.157 63.751,282.323 63.986,282.323 64.165 C 282.323 64.263,282.383 64.344,282.458 64.344 C 282.532 64.344,282.721 64.557,282.878 64.817 C 283.035 65.077,283.361 65.500,283.603 65.756 C 283.845 66.012,284.043 66.267,284.043 66.322 C 284.043 66.428,284.270 66.725,284.774 67.281 C 284.940 67.464,285.075 67.690,285.075 67.785 C 285.075 67.880,285.137 67.957,285.213 67.957 C 285.288 67.957,285.540 68.265,285.772 68.641 C 286.004 69.016,286.252 69.326,286.323 69.329 C 286.394 69.331,286.452 69.411,286.452 69.505 C 286.452 69.599,286.722 69.964,287.053 70.315 C 287.384 70.666,287.699 71.092,287.753 71.261 C 287.807 71.431,287.923 71.570,288.012 71.570 C 288.100 71.570,288.172 71.653,288.172 71.754 C 288.172 71.856,288.269 72.037,288.387 72.157 C 288.505 72.277,288.796 72.634,289.032 72.949 C 289.269 73.265,289.676 73.759,289.936 74.048 C 290.197 74.337,290.454 74.710,290.507 74.878 C 290.560 75.046,290.676 75.183,290.764 75.183 C 290.853 75.183,290.925 75.255,290.925 75.344 C 290.925 75.433,291.148 75.750,291.420 76.048 C 291.693 76.346,292.022 76.796,292.151 77.048 C 292.281 77.300,292.485 77.609,292.605 77.735 C 292.724 77.862,293.034 78.249,293.292 78.596 C 293.550 78.942,293.804 79.265,293.857 79.312 C 293.909 79.359,294.139 79.669,294.368 80.000 C 294.597 80.331,294.884 80.705,295.005 80.830 C 295.127 80.955,295.569 81.536,295.987 82.120 C 297.271 83.913,299.089 85.421,299.387 84.942 C 300.147 83.722,300.126 84.024,300.182 73.275 L 300.235 63.022 300.750 62.397 C 301.763 61.168,302.344 61.045,306.839 61.107 C 311.232 61.167,311.385 61.202,312.405 62.363 L 312.946 62.980 312.946 85.146 C 312.946 104.640,312.915 107.339,312.688 107.527 C 312.546 107.645,312.430 107.821,312.430 107.920 C 312.430 109.011,310.463 109.419,305.209 109.419 C 299.901 109.419,299.305 109.267,297.548 107.457 C 296.386 106.260,295.570 105.328,295.570 105.199 C 295.570 105.164,295.366 104.919,295.118 104.654 C 294.869 104.389,294.346 103.746,293.956 103.226 C 293.566 102.705,293.155 102.202,293.043 102.108 C 292.930 102.013,292.425 101.355,291.919 100.645 C 291.413 99.935,290.836 99.161,290.636 98.925 C 289.003 96.995,288.344 96.189,287.792 95.448 C 287.441 94.976,287.013 94.462,286.841 94.306 C 286.669 94.149,286.263 93.673,285.940 93.247 C 285.616 92.822,285.038 92.119,284.654 91.687 C 284.271 91.254,283.609 90.484,283.183 89.974 C 282.757 89.465,282.273 88.909,282.108 88.739 C 281.942 88.569,281.806 88.395,281.806 88.353 C 281.806 87.847,279.535 86.843,279.058 87.137 C 278.733 87.338,278.665 89.029,278.632 97.806 C 278.595 107.461,278.538 108.215,277.845 108.215 C 277.753 108.215,277.677 108.318,277.677 108.444 C 277.677 109.075,275.711 109.420,272.116 109.417 C 268.242 109.415,267.206 109.134,266.406 107.867 L 265.978 107.190 265.978 85.104 L 265.978 63.019 266.452 62.373 C 267.324 61.183,267.876 61.088,273.720 61.127 L 278.796 61.161 279.656 61.606 M355.763 61.591 C 357.300 62.471,357.333 62.566,357.333 66.125 C 357.333 69.527,357.359 69.423,356.248 70.601 C 355.427 71.471,354.586 71.570,348.015 71.570 C 339.831 71.570,339.991 71.461,339.966 77.035 C 339.960 78.281,340.034 79.110,340.172 79.357 C 340.523 79.985,341.306 80.688,341.655 80.688 C 341.833 80.688,342.257 80.804,342.597 80.946 C 343.100 81.156,344.177 81.204,348.376 81.204 C 355.577 81.204,355.785 81.314,355.785 85.124 C 355.785 87.377,355.606 87.995,354.785 88.578 C 353.588 89.429,353.319 89.462,347.681 89.462 C 340.178 89.462,339.955 89.572,339.960 93.235 C 339.970 98.966,339.804 98.862,349.089 98.952 L 355.210 99.011 355.884 99.513 C 357.347 100.601,357.320 100.517,357.327 104.087 L 357.333 107.271 356.602 108.080 C 356.200 108.525,355.639 108.989,355.355 109.111 C 354.515 109.473,325.182 109.528,324.488 109.169 C 323.857 108.843,323.029 108.076,322.774 107.581 C 322.634 107.308,322.581 101.117,322.581 85.006 L 322.581 62.807 323.152 62.236 C 324.391 60.997,323.216 61.075,339.957 61.120 L 355.011 61.161 355.763 61.591 M102.068 75.391 C 100.882 77.810,100.926 77.669,100.220 81.278 C 99.786 83.497,99.714 83.793,99.212 85.419 C 97.728 90.234,98.734 91.486,103.742 91.052 C 107.202 90.752,107.753 89.925,106.747 86.538 C 106.477 85.631,106.164 84.139,105.798 82.024 C 105.704 81.481,105.552 80.837,105.459 80.593 C 105.366 80.349,105.290 79.941,105.290 79.685 C 105.290 79.430,105.132 78.796,104.939 78.277 C 104.745 77.758,104.403 76.815,104.178 76.180 C 103.229 73.507,103.028 73.432,102.068 75.391 " stroke="none" fill="#f2ab0c" fill-rule="evenodd"></path><path id="path3" d="M8.223 8.100 L 7.484 8.803 7.360 80.315 C 7.292 119.647,7.193 153.731,7.139 156.057 L 7.042 160.286 7.564 161.450 C 7.851 162.089,8.086 162.724,8.086 162.860 C 8.086 162.997,8.299 163.529,8.559 164.044 L 9.032 164.980 200.060 164.942 L 391.087 164.903 391.473 164.215 C 391.685 163.837,392.033 163.024,392.245 162.409 C 392.458 161.794,392.722 161.182,392.832 161.049 C 393.109 160.715,393.098 153.068,392.817 150.710 C 392.648 149.290,392.602 133.928,392.603 79.029 C 392.604 40.598,392.556 9.027,392.496 8.870 C 392.436 8.713,392.145 8.338,391.849 8.035 L 391.312 7.484 200.137 7.441 L 8.961 7.397 8.223 8.100 M391.255 8.715 C 391.715 9.131,391.752 150.788,391.292 151.490 L 391.014 151.914 200.023 151.913 L 9.032 151.911 8.774 151.440 C 8.357 150.676,8.297 9.207,8.714 8.746 C 9.137 8.278,390.739 8.247,391.255 8.715 " stroke="none" fill="#f5c550" fill-rule="evenodd"></path><path id="path4" d="M7.682 6.619 C 7.317 6.835,6.834 7.337,6.609 7.735 L 6.198 8.457 6.116 80.401 C 6.071 119.970,5.986 153.738,5.927 155.441 C 5.705 161.851,6.269 164.989,7.825 166.002 L 8.516 166.452 200.086 166.452 L 391.656 166.452 392.382 165.979 C 392.782 165.720,393.237 165.259,393.394 164.955 C 394.211 163.375,394.174 167.317,394.151 85.613 L 394.131 9.075 393.679 8.088 C 393.333 7.328,393.055 6.995,392.478 6.647 L 391.728 6.194 200.036 6.210 L 8.344 6.226 7.682 6.619 M391.849 8.035 C 392.145 8.338,392.436 8.713,392.496 8.870 C 392.556 9.027,392.604 40.598,392.603 79.029 C 392.602 133.928,392.648 149.290,392.817 150.710 C 393.098 153.068,393.109 160.715,392.832 161.049 C 392.722 161.182,392.458 161.794,392.245 162.409 C 392.033 163.024,391.685 163.837,391.473 164.215 L 391.087 164.903 200.060 164.942 L 9.032 164.980 8.559 164.044 C 8.299 163.529,8.086 162.997,8.086 162.860 C 8.086 162.724,7.851 162.089,7.564 161.450 L 7.042 160.286 7.139 156.057 C 7.193 153.731,7.292 119.647,7.360 80.315 L 7.484 8.803 8.223 8.100 L 8.961 7.397 200.137 7.441 L 391.312 7.484 391.849 8.035 " stroke="none" fill="#fcd484" fill-rule="evenodd"></path></g></svg>